{"title":"Royal Kill-AC3-XviD-DVDRip[Eng]2009 2Lions-Team","uid":5799525,"size":1463301112,"categoryP":"video","categoryS":"movies","magnet":"?xt=urn:btih:ef403c4d1e458ab4e7178af3613d7a186cbd2458&amp;dn=Royal+Kill-AC3-XviD-DVDRip%5BEng%5D2009+2Lions-Team&amp;tr=udp%3A%2F%2Ftracker.openbittorrent.com%3A80&amp;tr=udp%3A%2F%2Fopen.demonii.com%3A1337&amp;tr=udp%3A%2F%2Ftracker.coppersurfer.tk%3A6969&amp;tr=udp%3A%2F%2Fexodus.desync.com%3A6969","seeders":0,"leechers":0,"uploader":"FatFreddy31","files":-1,"time":1283202958,"description":"Also Known As:&quot;Ninja's Creed&quot; - USA (DVD title)\n\nWhen a female assassin is sent to the US to kill the last living heir to the modern day Himalayan Kingdom, royal solider is also sent to protect her. When he is face to face with the assassin his duty to the Kingdom becomes compromised. As they battle, secrets are uncovered and the line between good and evil is erased. Only one mission can be completed and only one person can survive.\n &lt;a href=&quot;\nhttp://www.imdb.com/title/tt0421237/&quot; rel=&quot;nofollow&quot; target=&quot;_NEW&quot;&gt;\nhttp://www.imdb.com/title/tt0421237/&lt;/a&gt;\n\nSubtitles (srt) : Dutch.\n\nCovers included.\n\nPrincess (Lalaine) komt in aanraking met een buitenlandse jongen. Ze wordt verliefd op hem en dit blijkt bepaald geen toeval te zijn, want Princess blijkt de laatste familieverwante te zijn van de koninklijke familie uit Samarza. De jongen is gestuurd om haar te beschermen, want een groep moordenaars is er op uit om Princess te vermoorden.\n &lt;a href=&quot;\nhttp://www.moviemeter.nl/film/36112&quot; rel=&quot;nofollow&quot; target=&quot;_NEW&quot;&gt;\nhttp://www.moviemeter.nl/film/36112&lt;/a&gt;\n\nOndertitels (srt) : Nederlands.\n\nHoesjes bijgevoegd.\n\nGeneral\nComplete name                    : Royal Kill-AC3-XviD-DVDRip[Eng]2009 2Lions-Team\\Royal Kill-AC3-XviD-DVDRip[Eng]2009 2Lions-Team.avi\nFormat                           : AVI\nFormat/Info                      : Audio Video Interleave\nFile size                        : 1.36 GiB\nDuration                         : 1h 29mn\nOverall bit rate                 : 2 173 Kbps\nWriting application              : VirtualDubMod 1.5.4.1 (build 2178/release)\nWriting library                  : VirtualDubMod build 2178/release\nSource                           : Ninjas Creed 2009 R1 NTSC DVDR-SADPANDA\n\nVideo\nID                               : 0\nFormat                           : MPEG-4 Visual\nFormat profile                   : Simple@L3\nFormat settings, BVOP            : No\nFormat settings, QPel            : No\nFormat settings, GMC             : No warppoints\nFormat settings, Matrix          : Default (H.263)\nCodec ID                         : XVID\nCodec ID/Hint                    : XviD\nDuration                         : 1h 29mn\nBit rate                         : 1 716 Kbps\nWidth                            : 720 pixels\nHeight                           : 400 pixels\nDisplay aspect ratio             : 16:9\nFrame rate                       : 23.976 fps\nResolution                       : 8 bits\nColorimetry                      : 4:2:0\nScan type                        : Progressive\nBits/(Pixel*Frame)               : 0.248\nStream size                      : 1.08 GiB (79%)\nWriting library                  : XviD 1.1.2 (UTC 2006-11-01)\n\nAudio\nID                               : 1\nFormat                           : AC-3\nFormat/Info                      : Audio Coding 3\nFormat_Settings_ModeExtension    : CM (complete main)\nCodec ID                         : 2000\nDuration                         : 1h 29mn\nBit rate mode                    : Constant\nBit rate                         : 448 Kbps\nChannel(s)                       : 6 channels\nChannel positions                : Front: L C R, Side: L R, LFE\nSampling rate                    : 48.0 KHz\nStream size                      : 288 MiB (21%)\nAlignment                        : Split accross interleaves\nInterleave, duration             : 42 ms (1.00 video frame)\nInterleave, preload duration     : 500 ms\n\nThanks to Simply ReleaseS for the source.\n\nBrought to you by \n2Lions Team\n\nmeer zien??\n                   \nKom dan eens kijken op ons NIEUWE forum \n            &lt;a href=&quot;\nhttp://www.2lions-site.nl/&quot; rel=&quot;nofollow&quot; target=&quot;_NEW&quot;&gt;\nhttp://www.2lions-site.nl/&lt;/a&gt;\n\n2Lions the site to be for all your Dutch MOVIES and more\n\n******************************************\n\nDON T HIT AND RUN Niet gelijk afhaken als de FILM binnen is blijf seeden. \n\nDon`t quit after you finished the download, but keep seeding\n\nThere are fake torrents from uploaders who use our team name.\nThose are not ours, or members from our team.\nWe 2Lions-Team are not responsible for the fake posts on our name\n\nWij 2Lions-Team zijn niet verantwoordelijk voor die zieke FAKE posten die op onze naam worden gedaan\n\nPlease check our site !!!\n\nto the fakers , get a life !!!","torrent":{"xt":"urn:btih:ef403c4d1e458ab4e7178af3613d7a186cbd2458","amp;dn":"Royal+Kill-AC3-XviD-DVDRip%5BEng%5D2009+2Lions-Team","amp;tr":["udp%3A%2F%2Ftracker.openbittorrent.com%3A80","udp%3A%2F%2Fopen.demonii.com%3A1337","udp%3A%2F%2Ftracker.coppersurfer.tk%3A6969","udp%3A%2F%2Fexodus.desync.com%3A6969"],"infoHash":"ef403c4d1e458ab4e7178af3613d7a186cbd2458","infoHashBuffer":{"type":"Buffer","data":[239,64,60,77,30,69,138,180,231,23,138,243,97,61,122,24,108,189,36,88]},"announce":[],"urlList":[]}}